<svg width="174" height="40" viewBox="0 0 174 40" fill="none" xmlns="http://www.w3.org/2000/svg">
<g clip-path="url(#clip0_12_3647)">
<path d="M168.912 0H5.08772C2.27785 0 0 2.23858 0 5V35C0 37.7614 2.27785 40 5.08772 40H168.912C171.722 40 174 37.7614 174 35V5C174 2.23858 171.722 0 168.912 0Z" fill="white"/>
<path d="M17.2138 20.073C17.6317 20.1463 17.9862 20.3627 18.2772 20.722C18.5682 21.0813 18.7137 21.4883 18.7137 21.943C18.7137 22.3317 18.6092 22.6837 18.4003 22.999C18.1988 23.307 17.904 23.5527 17.516 23.736C17.1281 23.912 16.6766 24 16.1617 24H13.05V16.355H16.0162C16.546 16.355 17.0012 16.443 17.3817 16.619C17.7623 16.795 18.0495 17.0333 18.2436 17.334C18.4376 17.6273 18.5346 17.9573 18.5346 18.324C18.5346 18.764 18.4153 19.1307 18.1764 19.424C17.9376 19.7173 17.6168 19.9337 17.2138 20.073ZM14.326 19.567H15.9043C16.3222 19.567 16.6468 19.4753 16.878 19.292C17.1169 19.1013 17.2362 18.83 17.2362 18.478C17.2362 18.1333 17.1169 17.8657 16.878 17.675C16.6468 17.477 16.3222 17.378 15.9043 17.378H14.326V19.567ZM16.0498 22.977C16.4825 22.977 16.8221 22.8743 17.0683 22.669C17.3146 22.4637 17.4377 22.1777 17.4377 21.811C17.4377 21.437 17.3071 21.14 17.0459 20.92C16.7847 20.7 16.4378 20.59 16.005 20.59H14.326V22.977H16.0498ZM25.6856 17.939V24H24.4096V23.285C24.2081 23.5343 23.9433 23.7323 23.6149 23.879C23.2941 24.0183 22.9507 24.088 22.5851 24.088C22.1001 24.088 21.6636 23.989 21.2756 23.791C20.895 23.593 20.5928 23.2997 20.3689 22.911C20.1525 22.5223 20.0443 22.053 20.0443 21.503V17.939H21.3091V21.316C21.3091 21.8587 21.4472 22.2767 21.7233 22.57C21.9993 22.856 22.3762 22.999 22.8538 22.999C23.3313 22.999 23.7082 22.856 23.9843 22.57C24.2679 22.2767 24.4096 21.8587 24.4096 21.316V17.939H25.6856ZM28.0184 17.136C27.787 17.136 27.5931 17.059 27.4364 16.905C27.2797 16.751 27.2013 16.5603 27.2013 16.333C27.2013 16.1057 27.2797 15.915 27.4364 15.761C27.5931 15.607 27.787 15.53 28.0184 15.53C28.2423 15.53 28.4326 15.607 28.5893 15.761C28.746 15.915 28.8243 16.1057 28.8243 16.333C28.8243 16.5603 28.746 16.751 28.5893 16.905C28.4326 17.059 28.2423 17.136 28.0184 17.136ZM28.6452 17.939V24H27.3692V17.939H28.6452ZM31.5965 15.86V24H30.3205V15.86H31.5965ZM34.7604 18.962V22.317C34.7604 22.5443 34.8127 22.7093 34.9171 22.812C35.029 22.9073 35.2156 22.955 35.4767 22.955H36.2602V24H35.2529C34.6783 24 34.2381 23.868 33.9321 23.604C33.6262 23.34 33.4732 22.911 33.4732 22.317V18.962H32.7456V17.939H33.4732V16.432H34.7604V17.939H36.2602V18.962H34.7604ZM48.6266 17.939L46.7126 24H45.3695L44.1271 19.523L42.8846 24H41.5415L39.6163 17.939H40.9147L42.2019 22.812L43.5114 17.939H44.8434L46.097 22.79L47.373 17.939H48.6266ZM50.2295 17.136C49.9982 17.136 49.8041 17.059 49.6474 16.905C49.4907 16.751 49.4124 16.5603 49.4124 16.333C49.4124 16.1057 49.4907 15.915 49.6474 15.761C49.8041 15.607 49.9982 15.53 50.2295 15.53C50.4533 15.53 50.6436 15.607 50.8003 15.761C50.957 15.915 51.0354 16.1057 51.0354 16.333C51.0354 16.5603 50.957 16.751 50.8003 16.905C50.6436 17.059 50.4533 17.136 50.2295 17.136ZM50.8563 17.939V24H49.5803V17.939H50.8563ZM54.0202 18.962V22.317C54.0202 22.5443 54.0724 22.7093 54.1769 22.812C54.2889 22.9073 54.4754 22.955 54.7366 22.955H55.5201V24H54.5127C53.9381 24 53.4978 23.868 53.1919 23.604C52.886 23.34 52.733 22.911 52.733 22.317V18.962H52.0055V17.939H52.733V16.432H54.0202V17.939H55.5201V18.962H54.0202ZM59.8862 17.84C60.3563 17.84 60.7741 17.939 61.1398 18.137C61.5128 18.335 61.8038 18.6283 62.0128 19.017C62.2292 19.4057 62.3374 19.875 62.3374 20.425V24H61.0726V20.612C61.0726 20.0693 60.9345 19.655 60.6585 19.369C60.3823 19.0757 60.0055 18.929 59.528 18.929C59.0504 18.929 58.6698 19.0757 58.3863 19.369C58.1101 19.655 57.9722 20.0693 57.9722 20.612V24H56.6962V15.86H57.9722V18.643C58.1885 18.3863 58.4609 18.1883 58.7893 18.049C59.125 17.9097 59.4906 17.84 59.8862 17.84Z" fill="black"/>
<path d="M97.5912 15.5255C98.4286 15.5255 99.1424 15.7386 99.7327 16.1649C100.323 16.5911 100.729 17.1561 100.95 17.8598V15.6288H101.995V23.75H100.95V21.519C100.729 22.2233 100.323 22.7886 99.7327 23.2149C99.1424 23.6411 98.4286 23.8543 97.5912 23.8543C96.8445 23.8543 96.1761 23.6857 95.5858 23.3486C94.9956 23.0116 94.5365 22.5281 94.2085 21.8982C93.8806 21.2683 93.7166 20.5321 93.7166 19.6894C93.7166 18.8369 93.8806 18.0957 94.2085 17.4658C94.5365 16.8366 94.9932 16.3559 95.5783 16.0237C96.1634 15.6915 96.8345 15.5255 97.5912 15.5255ZM97.8635 16.4472C96.9352 16.4472 96.1911 16.7372 95.6309 17.3173C95.0713 17.8973 94.7916 18.688 94.7916 19.6894C94.7916 20.6908 95.0713 21.4815 95.6309 22.0615C96.1911 22.6416 96.9352 22.9316 97.8635 22.9316C98.4486 22.9316 98.9757 22.7978 99.4444 22.5303C99.9139 22.2627 100.282 21.8835 100.549 21.3926C100.817 20.9018 100.95 20.3341 100.95 19.6894C100.95 19.0447 100.817 18.4773 100.549 17.9871C100.282 17.4963 99.9139 17.1168 99.4444 16.8485C98.9757 16.581 98.4486 16.4472 97.8635 16.4472ZM108.714 15.5255C109.471 15.5255 110.14 15.6915 110.72 16.0237C111.3 16.3559 111.754 16.8366 112.082 17.4658C112.41 18.0957 112.574 18.8369 112.574 19.6894C112.574 20.5321 112.41 21.2683 112.082 21.8982C111.754 22.5281 111.297 23.0116 110.712 23.3486C110.127 23.6857 109.461 23.8543 108.714 23.8543C107.867 23.8543 107.15 23.6411 106.565 23.2149C105.98 22.7886 105.576 22.2233 105.355 21.519V27.5873H104.295V15.6288H105.355V17.8598C105.576 17.1561 105.98 16.5911 106.565 16.1649C107.15 15.7386 107.867 15.5255 108.714 15.5255ZM108.427 16.4472C107.842 16.4472 107.314 16.581 106.845 16.8485C106.376 17.1168 106.011 17.4963 105.748 17.9871C105.487 18.4773 105.355 19.0447 105.355 19.6894C105.355 20.3341 105.487 20.9018 105.748 21.3926C106.011 21.8835 106.376 22.2627 106.845 22.5303C107.314 22.7978 107.842 22.9316 108.427 22.9316C109.366 22.9316 110.112 22.6416 110.667 22.0615C111.222 21.4815 111.499 20.6908 111.499 19.6894C111.499 18.688 111.222 17.8973 110.667 17.3173C110.112 16.7372 109.366 16.4472 108.427 16.4472ZM118.9 15.5255C119.656 15.5255 120.325 15.6915 120.905 16.0237C121.486 16.3559 121.939 16.8366 122.267 17.4658C122.595 18.0957 122.759 18.8369 122.759 19.6894C122.759 20.5321 122.595 21.2683 122.267 21.8982C121.939 22.5281 121.482 23.0116 120.897 23.3486C120.312 23.6857 119.646 23.8543 118.9 23.8543C118.052 23.8543 117.336 23.6411 116.751 23.2149C116.166 22.7886 115.762 22.2233 115.54 21.519V27.5873H114.481V15.6288H115.54V17.8598C115.762 17.1561 116.166 16.5911 116.751 16.1649C117.336 15.7386 118.052 15.5255 118.9 15.5255ZM118.612 16.4472C118.027 16.4472 117.5 16.581 117.031 16.8485C116.562 17.1168 116.196 17.4963 115.934 17.9871C115.671 18.4773 115.54 19.0447 115.54 19.6894C115.54 20.3341 115.671 20.9018 115.934 21.3926C116.196 21.8835 116.562 22.2627 117.031 22.5303C117.5 22.7978 118.027 22.9316 118.612 22.9316C119.55 22.9316 120.297 22.6416 120.853 22.0615C121.407 21.4815 121.684 20.6908 121.684 19.6894C121.684 18.688 121.407 17.8973 120.853 17.3173C120.297 16.7372 119.55 16.4472 118.612 16.4472ZM134.488 15.5107H136.485L134.23 23.75H131.87L130.069 17.7564L128.222 23.75H125.862L123.621 15.5107H125.755L127.118 21.8761L128.979 15.5107H131.234L133.11 21.8761L134.488 15.5107ZM139.679 17.0866C139.992 16.5613 140.405 16.1473 140.92 15.8447C141.434 15.5427 142.009 15.3917 142.645 15.3917V17.6374H142.025C140.461 17.6374 139.679 18.3513 139.679 19.7789V23.75H137.545V15.5107H139.679V17.0866ZM143.584 13.145C143.584 12.808 143.705 12.533 143.947 12.3202C144.189 12.1068 144.506 12 144.899 12C145.293 12 145.611 12.1068 145.854 12.3202C146.096 12.533 146.217 12.808 146.217 13.145C146.217 13.4723 146.096 13.7426 145.854 13.956C145.611 14.1694 145.293 14.2762 144.899 14.2762C144.506 14.2762 144.189 14.1694 143.947 13.956C143.705 13.7426 143.584 13.4723 143.584 13.145ZM143.826 15.5107H145.959V23.75H143.826V15.5107ZM151.544 21.9499H152.376V23.75H151.256C150.318 23.75 149.599 23.527 149.1 23.0811C148.6 22.6345 148.35 21.8909 148.35 20.8501V17.2804H147.185V15.5107H148.35V13.4726H150.485V15.5107H152.361V17.2804H150.485V20.8796C150.485 21.2764 150.565 21.5541 150.727 21.7128C150.887 21.8708 151.16 21.9499 151.544 21.9499ZM161.789 19.3176C161.789 19.5261 161.764 19.7641 161.714 20.0317H155.569C155.6 20.7655 155.801 21.3059 156.175 21.6528C156.548 21.9997 157.012 22.1732 157.568 22.1732C158.062 22.1732 158.472 22.0542 158.8 21.8161C159.128 21.5787 159.337 21.2567 159.428 20.8501H161.684C161.573 21.4252 161.336 21.9407 160.972 22.3965C160.609 22.8529 160.142 23.21 159.573 23.4677C159.002 23.7254 158.369 23.8543 157.673 23.8543C156.856 23.8543 156.13 23.6833 155.494 23.3413C154.858 22.9992 154.364 22.5109 154.011 21.8761C153.657 21.2413 153.48 20.4928 153.48 19.6304C153.48 18.7674 153.657 18.0164 154.011 17.3772C154.364 16.7376 154.858 16.2491 155.494 15.9121C156.13 15.575 156.856 15.4064 157.673 15.4064C158.5 15.4064 159.224 15.575 159.845 15.9121C160.466 16.2491 160.945 16.7126 161.283 17.3025C161.621 17.8923 161.789 18.564 161.789 19.3176ZM159.64 19.11C159.671 18.4352 159.492 17.9244 159.103 17.5774C158.714 17.2305 158.238 17.0571 157.673 17.0571C157.099 17.0571 156.614 17.2305 156.22 17.5774C155.827 17.9244 155.61 18.4352 155.569 19.11H159.64Z" fill="black"/>
<path d="M90.5693 19.9268C90.5693 23.239 87.8371 25.924 84.4668 25.924C82.9013 25.924 81.4735 25.3447 80.3932 24.3923C82.1238 23.6267 83.3286 21.9171 83.3286 19.931C83.3286 17.9424 82.1208 16.2311 80.3867 15.4669C81.4679 14.5112 82.8981 13.9295 84.4668 13.9295C87.8371 13.9295 90.5693 16.6146 90.5693 19.9268Z" fill="black"/>
<path d="M82.0274 15.1397C81.3877 14.6646 80.6592 14.3181 79.8832 14.1199C79.1072 13.9217 78.2991 13.8757 77.5051 13.9845C76.711 14.0934 75.9465 14.3549 75.2554 14.7543C74.5642 15.1536 73.9599 15.6828 73.4769 16.3118C72.994 16.9407 72.6419 17.657 72.4408 18.4197C72.2396 19.1825 72.1934 19.9767 72.3047 20.757C72.416 21.5373 72.6827 22.2884 73.0896 22.9673C73.4964 23.6463 74.0353 24.2398 74.6756 24.714C75.9676 25.6721 77.5938 26.0866 79.1966 25.8663C80.7996 25.646 82.2478 24.8089 83.2227 23.5393C84.1976 22.2697 84.6193 20.6714 84.3952 19.0962C84.171 17.5209 83.3193 16.0978 82.0274 15.1397ZM81.3488 16.0234C82.4021 16.8046 83.0966 17.9651 83.2793 19.2495C83.4621 20.5339 83.1183 21.8371 82.3234 22.8724C81.5284 23.9076 80.3476 24.5901 79.0407 24.7697C77.7336 24.9494 76.4076 24.6114 75.3542 23.8302C74.3008 23.049 73.6064 21.8885 73.4235 20.6041C73.2408 19.3196 73.5847 18.0165 74.3796 16.9812C75.1745 15.946 76.3554 15.2635 77.6623 15.0838C78.9692 14.9042 80.2953 15.2422 81.3488 16.0234Z" fill="black"/>
<path d="M78.515 17.8518C78.5077 17.8696 78.4144 18.2297 78.314 18.6569C78.2097 19.084 78.0444 19.7583 77.9512 20.1573C77.7714 20.888 77.6637 21.3682 77.6637 21.4317C77.6637 21.4493 77.7751 21.4636 77.9114 21.4636H78.1594L78.2706 20.9762C78.3354 20.7115 78.4792 20.1042 78.5941 19.6277C78.7091 19.151 78.8491 18.5721 78.903 18.339C78.9569 18.1059 79.0108 17.8943 79.0217 17.8696C79.0325 17.8378 78.9712 17.8273 78.7845 17.8273C78.6444 17.8273 78.5221 17.8378 78.515 17.8518ZM76.5858 19.3805L76.2554 19.7336L76.3525 19.8465C76.4062 19.91 76.5536 20.069 76.6793 20.1996L76.9092 20.4396H77.563L77.2542 20.1112C77.0852 19.9349 76.9451 19.7653 76.9451 19.7442C76.9451 19.7195 77.0745 19.5607 77.2326 19.3912C77.3905 19.2183 77.52 19.0698 77.52 19.0522C77.52 19.0381 77.3834 19.0275 77.2182 19.0275H76.92L76.5858 19.3805ZM79.1005 19.0486C79.1005 19.0593 79.1616 19.1263 79.2369 19.2005C79.5173 19.4758 79.7149 19.709 79.7041 19.7547C79.6969 19.7795 79.5604 19.9453 79.3952 20.1183L79.0972 20.4396H79.431L79.7652 20.4361L80.0705 20.1078C80.2394 19.9244 80.3758 19.7617 80.3758 19.7406C80.3758 19.7231 80.2321 19.5571 80.0524 19.3701L79.7294 19.0275H79.4166C79.2405 19.0275 79.1005 19.0381 79.1005 19.0486Z" fill="black"/>
</g>
<defs>
<clipPath id="clip0_12_3647">
<rect width="174" height="40" fill="white"/>
</clipPath>
</defs>
</svg>
